<svg width="62" height="60" viewBox="0 0 62 60" fill="none" xmlns="http://www.w3.org/2000/svg">
<path d="M20.2455 21.4783L16.1694 29.4155L14.0506 33.5423H19.2375V33.5873L19.2602 33.5423H23.264H28.451V33.5873L28.474 33.5423H33.5262L41.638 49.3391L47.1133 60H52.3217L46.848 49.3391L38.7362 33.5423L36.6174 29.4155H36.6167H31.4053H30.5938H25.3826H21.3802L24.5937 23.1567L30.9994 10.6826L40.6199 29.4155L42.4429 32.9659L56.325 60H61.5351L30.9994 0.536987L20.245 21.4783H20.2455Z" fill="url(#paint0_linear_2_167)"/>
<path d="M12.2692 37.0125L0.464878 60H5.67469L17.4791 37.0125H12.2692Z" fill="url(#paint1_linear_2_167)"/>
<path d="M21.4828 37.0125L9.67844 60H14.8883L26.6926 37.0125H21.4828Z" fill="url(#paint2_linear_2_167)"/>
<defs>
<linearGradient id="paint0_linear_2_167" x1="15.6183" y1="8.29151" x2="53.4399" y2="72.0194" gradientUnits="userSpaceOnUse">
<stop stop-color="#2E3191"/>
<stop offset="1" stop-color="#00995E"/>
</linearGradient>
<linearGradient id="paint1_linear_2_167" x1="-10.5275" y1="23.8086" x2="27.2938" y2="87.5361" gradientUnits="userSpaceOnUse">
<stop stop-color="#2E3191"/>
<stop offset="1" stop-color="#00995E"/>
</linearGradient>
<linearGradient id="paint2_linear_2_167" x1="-4.25367" y1="20.0853" x2="33.5677" y2="83.8129" gradientUnits="userSpaceOnUse">
<stop stop-color="#2E3191"/>
<stop offset="1" stop-color="#00995E"/>
</linearGradient>
</defs>
</svg>
