<svg width="156" height="54" viewBox="0 0 156 54" fill="none" xmlns="http://www.w3.org/2000/svg">
<path d="M68.619 35.4359L70.231 34.2366C70.8113 35.2932 71.8914 35.8972 73.1407 35.8972C74.5998 35.8972 75.704 35.1676 75.704 34.136C75.704 32.8864 73.9952 32.1317 72.4799 31.4525C70.9564 30.748 69.2638 29.9263 69.2638 27.8046C69.2638 25.5906 71.1096 24.0477 73.4471 24.0477C75.301 24.0477 76.6874 24.9784 77.2193 26.4628L75.704 27.553C75.301 26.6388 74.4063 26.1273 73.4633 26.1273C72.2703 26.1273 71.3191 26.8988 71.3191 27.8549C71.3191 28.9114 72.5201 29.2888 74.1 29.9933C76.1555 30.9326 77.7514 31.964 77.7514 34.0941C77.7514 36.4925 75.7524 38.0356 73.1166 38.0356C70.9805 38.0356 69.3606 36.9956 68.619 35.4359Z" fill="#636272"/>
<path d="M93.1578 24.2907V37.8092H91.1185V32.0982H85.4923V37.8092H83.4611V24.2907H85.4923V29.9933H91.1185V24.2907H93.1578Z" fill="#636272"/>
<path d="M99.4961 32.6853V24.2907H101.544V32.6769C101.544 34.5468 102.809 35.9138 104.397 35.9138C105.985 35.9138 107.266 34.5468 107.266 32.6769V24.2907H109.322V32.6853C109.322 35.788 107.17 38.0608 104.405 38.0608C101.64 38.0608 99.4961 35.788 99.4961 32.6853Z" fill="#636272"/>
<path d="M126.098 24.2572V38.0438H126.001L117.691 29.0121V37.8259H115.652V24.056H115.757L124.051 33.071V24.2572H126.098Z" fill="#636272"/>
<path d="M135.806 32.031L131.493 24.2907H133.791L136.813 29.6745L139.844 24.2907H142.141L137.829 32.031V37.8091H135.806V32.031Z" fill="#636272"/>
<path d="M152.115 33.9348L149.834 28.6515L147.545 33.9348H152.115ZM152.905 35.7545H146.755L145.868 37.8092H143.66L149.769 24.014H149.89L156 37.8092H153.792L152.905 35.7545Z" fill="#636272"/>
<path d="M52.0278 47.4341C52.0278 46.214 53.0068 45.19 54.1771 45.19C54.717 45.198 55.2156 45.4373 55.6238 45.8511L55.244 46.386C54.9521 46.0823 54.5723 45.8807 54.1642 45.8807C53.4099 45.8807 52.6892 46.5688 52.6892 47.4369C52.6892 48.3105 53.4203 48.985 54.1668 48.985C54.593 48.985 54.9599 48.7645 55.2466 48.4689L55.6238 49.0172C55.2647 49.3854 54.8074 49.6676 54.1875 49.6676C53.0068 49.6676 52.0278 48.657 52.0278 47.4341Z" fill="#0C1D5A"/>
<path d="M58.6419 47.956V45.2656H59.298V47.9532C59.298 48.5527 59.7035 48.9906 60.2124 48.9906C60.7212 48.9906 61.1321 48.5527 61.1321 47.9532V45.2656H61.7907V47.956C61.7907 48.9503 61.1011 49.6787 60.215 49.6787C59.3289 49.6787 58.6419 48.9503 58.6419 47.956Z" fill="#0C1D5A"/>
<path d="M64.8476 48.8375L65.3642 48.4532C65.5503 48.7918 65.8964 48.9853 66.2968 48.9853C66.7644 48.9853 67.1183 48.7514 67.1183 48.4208C67.1183 48.0205 66.5706 47.7785 66.0849 47.5609C65.5968 47.3351 65.0542 47.0717 65.0542 46.3917C65.0542 45.6821 65.6459 45.1876 66.3949 45.1876C66.9891 45.1876 67.4335 45.486 67.6039 45.9616L67.1183 46.3111C66.9891 46.0181 66.7024 45.8541 66.4001 45.8541C66.0179 45.8541 65.7129 46.1014 65.7129 46.4078C65.7129 46.7464 66.098 46.8675 66.6042 47.0932C67.2629 47.3942 67.7745 47.7248 67.7745 48.4076C67.7745 49.1761 67.1339 49.6706 66.2891 49.6706C65.6045 49.6706 65.0852 49.3374 64.8476 48.8375Z" fill="#0C1D5A"/>
<path d="M73.4818 45.9401H72.3659V49.5981H71.7098V45.9401H70.5938V45.2656H73.4818V45.9401Z" fill="#0C1D5A"/>
<path d="M79.7785 47.4317C79.7785 46.5744 79.1042 45.8755 78.2828 45.8755C77.4613 45.8755 76.7921 46.5744 76.7921 47.4317C76.7921 48.2837 77.4613 48.9798 78.2828 48.9798C79.1042 48.9798 79.7785 48.2837 79.7785 47.4317ZM76.1335 47.4372C76.1335 46.2008 77.0997 45.1902 78.2853 45.1902C79.4685 45.1902 80.4399 46.2008 80.4399 47.4372C80.4399 48.6626 79.4685 49.6678 78.2828 49.6678C77.0997 49.6678 76.1335 48.6626 76.1335 47.4372Z" fill="#0C1D5A"/>
<path d="M87.6553 45.1715V49.5982H87.0019V47.1954L85.6198 49.5256H85.6146L84.23 47.1927V49.5982H83.5764V45.1715H83.6254L85.6173 48.3215L87.6063 45.1715H87.6553Z" fill="#0C1D5A"/>
<path d="M90.9935 45.2656H91.647V49.5981H90.9935V45.2656Z" fill="#0C1D5A"/>
<path d="M96.7144 45.9401H94.826V45.2656H97.7554L95.8697 48.9207H97.7554V49.5981H94.826L96.7144 45.9401Z" fill="#0C1D5A"/>
<path d="M101.587 45.9348V47.0447H103.163V47.722H101.587V48.9207H103.414V49.5981H100.934V45.2656H103.414V45.9348H101.587Z" fill="#0C1D5A"/>
<path d="M109.302 47.4344C109.302 46.5153 108.728 45.9401 107.814 45.9401H107.282V48.9208H107.822C108.731 48.9208 109.302 48.3483 109.302 47.4344ZM109.963 47.4372C109.963 48.7675 109.139 49.5981 107.817 49.5981H106.631V45.2656H107.817C109.139 45.2628 109.963 46.0961 109.963 47.4372Z" fill="#0C1D5A"/>
<path d="M117.842 45.9321V47.0905H119.418V47.7678H117.842V49.6035H117.188V45.2548H119.668V45.9321H117.842Z" fill="#0C1D5A"/>
<path d="M126.084 47.4317C126.084 46.5744 125.41 45.8755 124.588 45.8755C123.767 45.8755 123.098 46.5744 123.098 47.4317C123.098 48.2837 123.767 48.9798 124.588 48.9798C125.41 48.9798 126.084 48.2837 126.084 47.4317ZM122.439 47.4372C122.439 46.2008 123.405 45.1902 124.591 45.1902C125.774 45.1902 126.745 46.2008 126.745 47.4372C126.745 48.6626 125.774 49.6678 124.588 49.6678C123.405 49.6678 122.439 48.6626 122.439 47.4372Z" fill="#0C1D5A"/>
<path d="M131.191 47.3566C131.584 47.3592 131.912 47.0286 131.912 46.6416C131.912 46.2385 131.579 45.9401 131.191 45.9401H130.535V47.3566H131.191ZM132.17 49.5981L131.049 47.9209H130.538V49.5981H129.884L129.882 45.2656H131.176C131.951 45.2656 132.586 45.8864 132.586 46.6577C132.586 47.2168 132.24 47.7033 131.762 47.8644L132.974 49.5981H132.17Z" fill="#0C1D5A"/>
<path d="M141.08 47.7463L139.698 45.2656H140.434L141.403 46.9911L142.374 45.2656H143.111L141.728 47.7463V49.5982H141.08V47.7463Z" fill="#0C1D5A"/>
<path d="M149.092 47.4317C149.092 46.5744 148.418 45.8755 147.596 45.8755C146.775 45.8755 146.105 46.5744 146.105 47.4317C146.105 48.2837 146.775 48.9798 147.596 48.9798C148.418 48.9798 149.092 48.2837 149.092 47.4317ZM145.447 47.4372C145.447 46.2008 146.413 45.1902 147.599 45.1902C148.782 45.1902 149.753 46.2008 149.753 47.4372C149.753 48.6626 148.782 49.6678 147.596 49.6678C146.413 49.6678 145.447 48.6626 145.447 47.4372Z" fill="#0C1D5A"/>
<path d="M152.851 47.956V45.2656H153.507V47.9532C153.507 48.5527 153.913 48.9906 154.422 48.9906C154.931 48.9906 155.341 48.5527 155.341 47.9532V45.2656H156V47.956C156 48.9503 155.31 49.6787 154.424 49.6787C153.538 49.6787 152.851 48.9503 152.851 47.956Z" fill="#0C1D5A"/>
<path d="M60.4833 33.9348L58.202 28.6515L55.9129 33.9348H60.4833ZM61.2731 35.7545H55.1231L54.2363 37.8092H52.0278L58.1377 24.014H58.2585L64.3683 37.8092H62.1598L61.2731 35.7545Z" fill="#636272"/>
<path d="M14.4811 19.3287L11.497 26.3015L9.94589 29.9269H13.7431V29.9665L13.7598 29.9269H16.6909H20.4882V29.9665L20.505 29.9269H24.2036L30.1422 43.8045L34.1506 53.17H37.9636L33.9564 43.8045L28.0178 29.9269L26.4667 26.3015H26.4662H22.651H22.0569H18.2418H15.3118L17.6643 20.8032L22.3538 9.8447L29.3969 26.3015L30.7314 29.4206L40.8943 53.17H44.7085L22.3538 0.931746L14.4807 19.3287H14.4811Z" fill="url(#paint0_linear_3_171)"/>
<path d="M8.64179 32.9755L0 53.17H3.81402L12.4558 32.9755H8.64179Z" fill="url(#paint1_linear_3_171)"/>
<path d="M15.3869 32.9755L6.7451 53.17H10.5591L19.2009 32.9755H15.3869Z" fill="url(#paint2_linear_3_171)"/>
<defs>
<linearGradient id="paint0_linear_3_171" x1="11.0936" y1="7.7441" x2="46.8653" y2="57.9724" gradientUnits="userSpaceOnUse">
<stop stop-color="#2E3191"/>
<stop offset="1" stop-color="#00995E"/>
</linearGradient>
<linearGradient id="paint1_linear_3_171" x1="-8.04734" y1="21.3759" x2="27.7241" y2="71.6039" gradientUnits="userSpaceOnUse">
<stop stop-color="#2E3191"/>
<stop offset="1" stop-color="#00995E"/>
</linearGradient>
<linearGradient id="paint2_linear_3_171" x1="-3.45437" y1="18.1049" x2="32.3172" y2="68.333" gradientUnits="userSpaceOnUse">
<stop stop-color="#2E3191"/>
<stop offset="1" stop-color="#00995E"/>
</linearGradient>
</defs>
</svg>
